<svg height="1024" node-id="1" sillyvg="true" template-height="1024" template-width="1024" version="1.1" viewBox="0 0 1024 1024" width="1024" xmlns="http://www.w3.org/2000/svg" xmlns:xlink="http://www.w3.org/1999/xlink"><defs node-id="37"><linearGradient gradientUnits="userSpaceOnUse" id="SVGID_1_" node-id="6" spreadMethod="pad" x1="392.4624" x2="668.2659" y1="-902.7861" y2="-549.7669"><stop offset="0" stop-color="#feb77a"></stop><stop offset="0.99" stop-color="#f97840"></stop></linearGradient><linearGradient gradientUnits="userSpaceOnUse" id="SVGID_2_" node-id="14" spreadMethod="pad" x1="392.6232" x2="668.3381" y1="-470.7873" y2="-117.8815"><stop offset="0" stop-color="#feb77a"></stop><stop offset="0.99" stop-color="#f97840"></stop></linearGradient><linearGradient gradientUnits="userSpaceOnUse" id="SVGID_3_" node-id="22" spreadMethod="pad" x1="301.0364" x2="577.4388" y1="-691.8683" y2="-337.946"><stop offset="0" stop-color="#feb77a"></stop><stop offset="0.99" stop-color="#f97840"></stop></linearGradient><linearGradient gradientUnits="userSpaceOnUse" id="SVGID_4_" node-id="30" spreadMethod="pad" x1="525.2715" x2="796.3145" y1="-540.9449" y2="-193.9571"><stop offset="0" stop-color="#feb77a"></stop><stop offset="0.99" stop-color="#f97840"></stop></linearGradient></defs><path d="M 331.50 188.20 C 294.20 188.10 263.90 218.20 263.80 255.50 C 263.80 255.70 263.80 255.90 263.80 256.00 L 263.80 339.20 C 263.80 374.90 292.80 403.90 328.50 403.90 L 759.70 403.90 L 759.70 363.40 L 734.80 363.40 L 734.80 228.70 L 759.70 228.70 L 759.70 188.20 L 331.50 188.20 Z" fill="url(#SVGID_1_)" fill-rule="nonzero" node-id="64" stroke="none" target-height="215.79999" target-width="495.90002" target-x="263.8" target-y="188.1"></path><g node-id="117"><path d="M 734.70 228.70 L 734.70 363.40 L 318.70 363.40 C 308.50 363.40 300.10 355.20 300.10 344.90 C 300.10 344.90 300.10 344.80 300.10 344.80 L 300.10 247.20 C 300.10 237.00 308.40 228.70 318.60 228.70 C 318.60 228.70 318.70 228.70 318.70 228.70 L 734.70 228.70 Z" fill="#ffffff" fill-opacity="0.5" fill-rule="nonzero" group-id="1" node-id="68" stroke="none" target-height="134.7" target-width="434.6" target-x="300.1" target-y="228.7"></path></g><g node-id="118"><path d="M 362.70 267.60 L 734.80 267.60 L 734.80 283.80 L 362.70 283.80 Z" fill="#ffffff" fill-opacity="0.5" fill-rule="nonzero" group-id="2" node-id="73" stroke="none" target-height="16.199982" target-width="372.09998" target-x="362.7" target-y="267.6"></path><path d="M 362.70 308.40 L 734.80 308.40 L 734.80 324.60 L 362.70 324.60 Z" fill="#ffffff" fill-opacity="0.5" fill-rule="nonzero" group-id="2" node-id="75" stroke="none" target-height="16.200012" target-width="372.09998" target-x="362.7" target-y="308.4"></path></g><path d="M 331.50 620.10 C 294.20 620.10 264.00 650.30 264.00 687.60 L 264.00 771.10 C 264.00 806.80 293.00 835.80 328.70 835.80 L 328.70 835.80 L 759.60 835.80 L 759.60 795.30 L 734.70 795.30 L 734.70 660.60 L 759.60 660.60 L 759.60 620.10 L 331.50 620.10 Z" fill="url(#SVGID_2_)" fill-rule="nonzero" node-id="78" stroke="none" target-height="215.70001" target-width="495.59998" target-x="264" target-y="620.1"></path><path d="M 734.70 660.60 L 734.70 795.30 L 318.70 795.30 C 308.50 795.30 300.10 787.10 300.10 776.80 C 300.10 776.80 300.10 776.70 300.10 776.70 L 300.10 679.10 C 300.10 668.90 308.40 660.60 318.60 660.60 C 318.60 660.60 318.70 660.60 318.70 660.60 L 734.70 660.60 Z" fill="#ffffff" fill-opacity="0.5" fill-rule="nonzero" group-id="3" node-id="82" stroke="none" target-height="134.70001" target-width="434.6" target-x="300.1" target-y="660.6"></path><path d="M 362.70 699.50 L 734.80 699.50 L 734.80 715.70 L 362.70 715.70 Z" fill="#ffffff" fill-opacity="0.5" fill-rule="nonzero" group-id="4" node-id="87" stroke="none" target-height="16.200012" target-width="372.09998" target-x="362.7" target-y="699.5"></path><path d="M 362.70 740.30 L 734.80 740.30 L 734.80 756.50 L 362.70 756.50 Z" fill="#ffffff" fill-opacity="0.5" fill-rule="nonzero" group-id="4" node-id="89" stroke="none" target-height="16.200012" target-width="372.09998" target-x="362.7" target-y="740.3"></path><path d="M 638.10 404.20 C 675.40 404.00 705.70 434.10 705.90 471.40 C 705.90 471.50 705.90 471.60 705.90 471.70 L 705.90 555.20 C 705.90 590.90 676.90 619.90 641.20 619.90 L 210.10 619.90 L 210.10 579.40 L 234.90 579.40 L 234.90 444.70 L 210.10 444.70 L 210.10 404.20 L 638.10 404.20 Z" fill="url(#SVGID_3_)" fill-rule="nonzero" node-id="92" stroke="none" target-height="215.90002" target-width="495.80002" target-x="210.1" target-y="404"></path><path d="M 234.90 444.70 L 234.90 579.40 L 651.00 579.40 C 661.20 579.40 669.50 571.10 669.50 560.90 L 669.50 463.30 C 669.50 453.10 661.20 444.80 651.00 444.80 L 234.90 444.80 Z" fill="#ffffff" fill-opacity="0.5" fill-rule="nonzero" group-id="5" node-id="96" stroke="none" target-height="134.70001" target-width="434.6" target-x="234.9" target-y="444.7"></path><path d="M 234.90 483.50 L 607.00 483.50 L 607.00 499.70 L 234.90 499.70 Z" fill="#ffffff" fill-opacity="0.5" fill-rule="nonzero" group-id="6" node-id="101" stroke="none" target-height="16.200012" target-width="372.1" target-x="234.9" target-y="483.5"></path><path d="M 234.90 524.30 L 607.00 524.30 L 607.00 540.50 L 234.90 540.50 Z" fill="#ffffff" fill-opacity="0.5" fill-rule="nonzero" group-id="6" node-id="103" stroke="none" target-height="16.200012" target-width="372.1" target-x="234.9" target-y="524.3"></path><path d="M 813.90 799.70 C 813.90 819.60 797.80 835.80 777.80 835.90 L 543.70 835.90 C 523.80 835.90 507.60 819.70 507.60 799.70 L 507.60 515.40 C 507.60 495.50 523.80 479.30 543.70 479.30 L 543.70 479.30 L 777.80 479.30 C 797.70 479.30 813.90 495.50 813.90 515.40 L 813.90 515.40 L 813.90 799.70 Z" fill="url(#SVGID_4_)" fill-rule="nonzero" node-id="106" stroke="none" target-height="356.60004" target-width="306.30002" target-x="507.6" target-y="479.3"></path><path d="M 595.80 835.80 L 543.70 835.80 C 523.80 835.80 507.60 819.60 507.60 799.60 L 507.60 515.40 C 507.60 495.50 523.80 479.30 543.70 479.30 L 543.70 479.30 L 595.80 479.30 L 595.80 835.80 Z" fill="#ffffff" fill-opacity="0.5" fill-rule="nonzero" group-id="7" node-id="110" stroke="none" target-height="356.5" target-width="88.19998" target-x="507.6" target-y="479.3"></path><path d="M 713.70 567.00 L 689.60 543.00 L 665.20 567.30 C 660.70 571.80 653.50 571.80 649.00 567.40 C 646.90 565.30 645.70 562.50 645.60 559.60 L 645.60 479.40 L 733.60 479.40 L 733.60 558.60 C 733.90 564.90 729.10 570.30 722.80 570.70 C 719.30 570.80 716.00 569.50 713.70 567.00 Z" fill="#ffffff" fill-opacity="0.5" fill-rule="nonzero" group-id="8" node-id="115" stroke="none" target-height="92.399994" target-width="88.30005" target-x="645.6" target-y="479.4"></path></svg>