<svg xmlns="http://www.w3.org/2000/svg" fill="none" viewBox="0 0 1024 1024" height="1024" width="1024">
<path fill="#F0FFFD" d="M784.307 397.861C784.307 397.861 692.737 478.237 798.174 650.35C891.815 803.204 681.343 869.462 590.646 851.72C473.156 828.736 405.698 680.235 315.849 727.289C226 774.343 136.99 561.122 267.684 482.662C430.261 385.062 325.921 328.345 340.523 256.782C351.003 205.422 500.136 126.014 580.549 216.594C648.216 292.817 681.399 265.547 712.327 255.372C756.933 240.696 854.298 317.034 784.307 397.861Z"></path>
<path fill="#8AD1C8" d="M525.038 488.435L495.037 611.493C493.923 616.056 493.72 620.794 494.438 625.437C495.156 630.079 496.781 634.534 499.222 638.548C501.662 642.562 504.869 646.055 508.66 648.829C512.451 651.603 516.752 653.603 521.316 654.714L670.522 691.089C674.358 733.212 709.218 736.326 722.971 737.769C723.107 737.777 723.241 737.739 723.353 737.662C723.465 737.586 723.548 737.474 723.59 737.345C723.632 737.216 723.63 737.077 723.584 736.949C723.539 736.822 723.452 736.712 723.338 736.639C713.462 730.619 710.514 714.116 709.855 700.679L720.932 703.379C725.495 704.493 730.234 704.696 734.876 703.979C739.518 703.261 743.973 701.635 747.987 699.195C752.001 696.754 755.495 693.547 758.268 689.756C761.042 685.965 763.042 681.665 764.153 677.1L794.154 554.043C795.267 549.479 795.471 544.741 794.753 540.099C794.035 535.457 792.41 531.001 789.969 526.988C787.529 522.974 784.322 519.48 780.531 516.706C776.74 513.932 772.44 511.933 767.876 510.821L568.259 462.157C563.696 461.043 558.958 460.839 554.316 461.557C549.673 462.275 545.218 463.9 541.204 466.341C537.19 468.781 533.697 471.988 530.923 475.779C528.149 479.57 526.149 483.871 525.038 488.435V488.435Z"></path>
<path fill="white" d="M772.539 549.142L689.106 528.802C688.557 528.668 688.003 529.005 687.869 529.554L683.589 547.111C683.455 547.661 683.791 548.215 684.341 548.349L767.774 568.689C768.323 568.823 768.877 568.486 769.011 567.937L773.291 550.38C773.425 549.83 773.089 549.276 772.539 549.142Z"></path>
<path fill="#8AD1C8" d="M760.626 598.01L534.57 542.899C534.021 542.765 533.467 543.102 533.333 543.651L529.052 561.208C528.918 561.757 529.255 562.311 529.805 562.445L755.861 617.556C756.41 617.69 756.964 617.353 757.098 616.804L761.379 599.247C761.513 598.697 761.176 598.143 760.626 598.01Z"></path>
<path fill="#8AD1C8" d="M748.713 646.877L522.657 591.766C522.108 591.632 521.554 591.969 521.42 592.518L517.139 610.075C517.005 610.625 517.342 611.179 517.892 611.313L743.947 666.423C744.497 666.557 745.051 666.22 745.185 665.671L749.465 648.114C749.599 647.565 749.262 647.011 748.713 646.877Z"></path>
<path fill="#3DA193" d="M609.045 340.817L658.104 498.359C659.925 504.201 660.577 510.345 660.023 516.439C659.468 522.533 657.719 528.459 654.874 533.877C652.029 539.294 648.145 544.099 643.443 548.015C638.74 551.931 633.313 554.882 627.47 556.7L436.454 616.181C434.908 671.258 389.841 678.155 372.078 681.154C371.902 681.177 371.723 681.141 371.569 681.051C371.416 680.96 371.297 680.822 371.232 680.656C371.166 680.491 371.158 680.309 371.208 680.138C371.258 679.968 371.364 679.819 371.508 679.715C383.856 671.081 386.341 649.383 386.1 631.86L371.918 636.276C366.076 638.096 359.932 638.748 353.839 638.194C347.745 637.64 341.82 635.89 336.402 633.046C330.985 630.201 326.181 626.317 322.265 621.615C318.349 616.913 315.397 611.486 313.579 605.643L264.521 448.101C262.7 442.259 262.047 436.115 262.602 430.021C263.156 423.927 264.905 418.002 267.75 412.584C270.595 407.166 274.479 402.362 279.181 398.445C283.883 394.529 289.311 391.578 295.154 389.76L550.704 310.184C556.546 308.363 562.69 307.711 568.784 308.265C574.878 308.819 580.803 310.568 586.221 313.413C591.639 316.258 596.443 320.142 600.359 324.844C604.276 329.546 607.227 334.974 609.045 340.817V340.817Z"></path>
<path fill="white" d="M428.565 397.242L291.718 439.8C291.178 439.968 290.876 440.542 291.044 441.082L298.22 464.156C298.388 464.697 298.962 464.998 299.502 464.83L436.35 422.271C436.89 422.104 437.191 421.53 437.023 420.989L429.847 397.915C429.679 397.375 429.105 397.074 428.565 397.242Z"></path>
<path fill="#8AD1C8" d="M601.26 411.866L311.27 502.171C310.73 502.339 310.428 502.913 310.596 503.453L317.78 526.522C317.948 527.062 318.522 527.363 319.062 527.195L609.053 436.89C609.593 436.722 609.894 436.148 609.726 435.608L602.542 412.539C602.374 411.999 601.8 411.698 601.26 411.866Z"></path>
<path fill="#8AD1C8" d="M620.715 474.747L330.657 564.954C330.117 565.122 329.815 565.696 329.983 566.236L337.159 589.31C337.327 589.85 337.901 590.151 338.441 589.983L628.499 499.777C629.04 499.609 629.341 499.035 629.173 498.495L621.997 475.421C621.829 474.881 621.255 474.579 620.715 474.747Z"></path>
</svg>
